<?xml version="1.0" encoding="utf-8"?>
<!-- Generator: Adobe Illustrator 28.0.0, SVG Export Plug-In . SVG Version: 6.00 Build 0)  -->
<svg version="1.1" id="Ñëîé_1" xmlns="http://www.w3.org/2000/svg" xmlns:xlink="http://www.w3.org/1999/xlink" x="0px" y="0px"
	 viewBox="0 0 1240 1211" style="enable-background:new 0 0 1240 1211;" xml:space="preserve">
<style type="text/css">
	.st0{fill:#00005C;}
	.st1{fill:#9A99FF;}
	.st2{fill:#011D33;}
	.st3{fill:#00A6F4;}
	.st4{fill:#2D0402;}
	.st5{fill:#FF9A00;}
	.st6{fill:#001E36;}
	.st7{fill:#30A8FF;}
	.st8{fill:#43091F;}
	.st9{fill:#E94869;}
	.st10{fill:#00005B;}
	.st11{fill:#9999FF;}
</style>
<g>
	<path class="st4" d="M1017.3,1211H222.7C99.7,1211,0,1111.32,0,988.36V222.64C0,99.68,99.7,0,222.7,0h794.61
		C1140.3,0,1240,99.68,1240,222.64v765.72C1240,1111.32,1140.3,1211,1017.3,1211z"/>
	<g>
		<rect x="846.61" y="484.96" class="st5" width="113.37" height="414.39"/>
		<circle class="st5" cx="903.3" cy="376.8" r="65.16"/>
		<g>
			<path class="st5" d="M601.07,353.35H455.02l0,0c0,24.55-4.26,48.92-12.59,72.02L271.55,899.35h119.65l42.99-130.6l191.73-1.39
				l43.81,131.99h126.51L601.07,353.35z M465.62,661.88l62.34-211.97l65.4,211.97H465.62z"/>
		</g>
	</g>
</g>
</svg>
