<?xml version="1.0" encoding="utf-8"?>
<!-- Generator: Adobe Illustrator 28.0.0, SVG Export Plug-In . SVG Version: 6.00 Build 0)  -->
<svg version="1.1" id="Ñëîé_1" xmlns="http://www.w3.org/2000/svg" xmlns:xlink="http://www.w3.org/1999/xlink" x="0px" y="0px"
	 viewBox="0 0 1240 1211" style="enable-background:new 0 0 1240 1211;" xml:space="preserve">
<style type="text/css">
	.st0{fill:#00005C;}
	.st1{fill:#9A99FF;}
	.st2{fill:#011D33;}
	.st3{fill:#00A6F4;}
	.st4{fill:#2D0402;}
	.st5{fill:#FF9A00;}
	.st6{fill:#001E36;}
	.st7{fill:#30A8FF;}
	.st8{fill:#43091F;}
	.st9{fill:#E94869;}
	.st10{fill:#00005B;}
	.st11{fill:#9999FF;}
</style>
<g>
	<path class="st6" d="M1017.34,1210.8H222.73c-122.99,0-222.7-99.68-222.7-222.64V222.44C0.04,99.48,99.74-0.2,222.73-0.2h794.61
		c122.99,0,222.7,99.68,222.7,222.64v765.72C1240.04,1111.12,1140.33,1210.8,1017.34,1210.8z"/>
	<g>
		<path class="st7" d="M486.42,310.04H284.37v538.37h113.41V680.25h88.64c51.11,0,97.39-20.73,130.89-54.21
			c33.49-33.5,54.21-79.78,54.21-130.89C671.53,392.92,588.65,310.04,486.42,310.04z M533.85,556.91
			c-15.81,15.8-37.65,25.58-61.76,25.58h-74.3V407.81h74.3c48.23,0,87.34,39.11,87.34,87.34
			C559.42,519.26,549.65,541.1,533.85,556.91z"/>
	</g>
	<path class="st7" d="M1025.44,727.7c0,35.74-16.66,69.83-42.96,93.66c-29.64,26.86-70.8,38.31-109.93,41.3
		c-4.69,0.36-9.39,0.58-14.09,0.68c-43.48,0.89-89.2-8.36-128.72-26.62c-0.42-0.19-0.84-0.39-1.26-0.58
		c0.07-31.7,0.13-63.39,0.2-95.09c0,1.73,31.43,9.34,35.33,10.62c35.87,11.77,78.69,20.57,116.48,15.74
		c7.98-1.02,16.18-3.01,22.37-8.15c23.31-19.36-0.32-43.44-19.32-52.68c-20.6-10.02-42.79-16.35-63.83-25.4
		c-19.94-8.58-38.97-19.71-54.86-34.51c-52.56-48.97-50.52-131.21,3.05-178.78c30.33-26.93,71.29-35.48,110.83-37.22
		c40.93-1.8,82.23,5.49,120.11,21.07c1.45,0.6,3,1.29,3.8,2.63c0.69,1.15,0.71,2.56,0.71,3.89c0.04,32.36,0.08,64.73,0.11,97.09
		c-6.18-5.27-14.61-7.45-21.92-10.65c-7.93-3.47-16.04-6.53-24.28-9.17c-29.19-9.36-67.09-17.99-97.06-7.72
		c-11.01,3.77-19.21,11.62-19.21,23.81c0,18.86,18.48,27.93,33.6,34.82c18.72,8.53,38.68,13.72,57.34,22.38
		C980.4,631.31,1025.44,669.86,1025.44,727.7z"/>
</g>
</svg>
